<mxfile host="app.diagrams.net" modified="2024-06-24T20:10:45.931Z" agent="Mozilla/5.0 (Windows NT 10.0; Win64; x64) AppleWebKit/537.36 (KHTML, like Gecko) Chrome/126.0.0.0 Safari/537.36" etag="eogQXgSaDFP7m2PI_vO7" version="24.6.2" type="device">
  <diagram name="Страница — 1" id="89QTdKZ1BIymGPmgR-rL">
    <mxGraphModel dx="1050" dy="625" grid="1" gridSize="10" guides="1" tooltips="1" connect="1" arrows="1" fold="1" page="1" pageScale="1" pageWidth="827" pageHeight="1169" math="0" shadow="0">
      <root>
        <mxCell id="0" />
        <mxCell id="1" parent="0" />
        <mxCell id="uywhyk80ppP3RX8Xkcpw-1" value="Гость" style="shape=umlActor;verticalLabelPosition=bottom;verticalAlign=top;html=1;outlineConnect=0;" vertex="1" parent="1">
          <mxGeometry x="80" y="200" width="80" height="80" as="geometry" />
        </mxCell>
        <mxCell id="uywhyk80ppP3RX8Xkcpw-2" value="Пользователь" style="shape=umlActor;verticalLabelPosition=bottom;verticalAlign=top;html=1;outlineConnect=0;" vertex="1" parent="1">
          <mxGeometry x="80" y="360" width="80" height="80" as="geometry" />
        </mxCell>
        <mxCell id="uywhyk80ppP3RX8Xkcpw-3" value="Авторизоваться" style="ellipse;whiteSpace=wrap;html=1;" vertex="1" parent="1">
          <mxGeometry x="294" y="160" width="120" height="80" as="geometry" />
        </mxCell>
        <mxCell id="uywhyk80ppP3RX8Xkcpw-4" value="" style="endArrow=none;html=1;rounded=0;entryX=0;entryY=0.5;entryDx=0;entryDy=0;" edge="1" parent="1" source="uywhyk80ppP3RX8Xkcpw-1" target="uywhyk80ppP3RX8Xkcpw-3">
          <mxGeometry width="50" height="50" relative="1" as="geometry">
            <mxPoint x="200" y="250" as="sourcePoint" />
            <mxPoint x="250" y="200" as="targetPoint" />
          </mxGeometry>
        </mxCell>
        <mxCell id="uywhyk80ppP3RX8Xkcpw-5" value="Авторизация доступна по средством связки логин + пароль или посредством токена&amp;nbsp;" style="shape=note;whiteSpace=wrap;html=1;backgroundOutline=1;darkOpacity=0.05;" vertex="1" parent="1">
          <mxGeometry x="620" y="130" width="190" height="100" as="geometry" />
        </mxCell>
        <mxCell id="uywhyk80ppP3RX8Xkcpw-6" value="" style="endArrow=none;dashed=1;html=1;dashPattern=1 3;strokeWidth=2;rounded=0;" edge="1" parent="1" source="uywhyk80ppP3RX8Xkcpw-3" target="uywhyk80ppP3RX8Xkcpw-5">
          <mxGeometry width="50" height="50" relative="1" as="geometry">
            <mxPoint x="490" y="210" as="sourcePoint" />
            <mxPoint x="540" y="160" as="targetPoint" />
          </mxGeometry>
        </mxCell>
        <mxCell id="uywhyk80ppP3RX8Xkcpw-7" value="Выйти из системы" style="ellipse;whiteSpace=wrap;html=1;" vertex="1" parent="1">
          <mxGeometry x="310" y="340" width="120" height="80" as="geometry" />
        </mxCell>
        <mxCell id="uywhyk80ppP3RX8Xkcpw-8" value="Сменить пароль" style="ellipse;whiteSpace=wrap;html=1;" vertex="1" parent="1">
          <mxGeometry x="310" y="440" width="120" height="80" as="geometry" />
        </mxCell>
        <mxCell id="uywhyk80ppP3RX8Xkcpw-9" value="" style="endArrow=none;html=1;rounded=0;exitX=0.75;exitY=0.1;exitDx=0;exitDy=0;exitPerimeter=0;entryX=0.033;entryY=0.415;entryDx=0;entryDy=0;entryPerimeter=0;" edge="1" parent="1" source="uywhyk80ppP3RX8Xkcpw-2" target="uywhyk80ppP3RX8Xkcpw-7">
          <mxGeometry width="50" height="50" relative="1" as="geometry">
            <mxPoint x="230" y="440" as="sourcePoint" />
            <mxPoint x="280" y="390" as="targetPoint" />
          </mxGeometry>
        </mxCell>
        <mxCell id="uywhyk80ppP3RX8Xkcpw-10" value="" style="endArrow=none;html=1;rounded=0;entryX=0;entryY=0.5;entryDx=0;entryDy=0;" edge="1" parent="1" source="uywhyk80ppP3RX8Xkcpw-2" target="uywhyk80ppP3RX8Xkcpw-8">
          <mxGeometry width="50" height="50" relative="1" as="geometry">
            <mxPoint x="230" y="480" as="sourcePoint" />
            <mxPoint x="280" y="430" as="targetPoint" />
          </mxGeometry>
        </mxCell>
        <mxCell id="uywhyk80ppP3RX8Xkcpw-12" value="После выхода пользовательская сессия аннулируется и происходит выход на всех страницах системы&amp;nbsp;" style="shape=note;whiteSpace=wrap;html=1;backgroundOutline=1;darkOpacity=0.05;" vertex="1" parent="1">
          <mxGeometry x="610" y="330" width="180" height="100" as="geometry" />
        </mxCell>
        <mxCell id="uywhyk80ppP3RX8Xkcpw-13" value="" style="endArrow=none;dashed=1;html=1;dashPattern=1 3;strokeWidth=2;rounded=0;" edge="1" parent="1" source="uywhyk80ppP3RX8Xkcpw-7" target="uywhyk80ppP3RX8Xkcpw-12">
          <mxGeometry width="50" height="50" relative="1" as="geometry">
            <mxPoint x="500" y="410" as="sourcePoint" />
            <mxPoint x="550" y="360" as="targetPoint" />
          </mxGeometry>
        </mxCell>
        <mxCell id="uywhyk80ppP3RX8Xkcpw-14" value="После смены пароля все сессии пользователя аннулируются и требуется повторно войти в систему уже с новым паролем&amp;nbsp;" style="shape=note;whiteSpace=wrap;html=1;backgroundOutline=1;darkOpacity=0.05;" vertex="1" parent="1">
          <mxGeometry x="590" y="460" width="210" height="130" as="geometry" />
        </mxCell>
        <mxCell id="uywhyk80ppP3RX8Xkcpw-15" value="" style="endArrow=none;dashed=1;html=1;dashPattern=1 3;strokeWidth=2;rounded=0;" edge="1" parent="1" source="uywhyk80ppP3RX8Xkcpw-8" target="uywhyk80ppP3RX8Xkcpw-14">
          <mxGeometry width="50" height="50" relative="1" as="geometry">
            <mxPoint x="480" y="520" as="sourcePoint" />
            <mxPoint x="530" y="470" as="targetPoint" />
          </mxGeometry>
        </mxCell>
      </root>
    </mxGraphModel>
  </diagram>
</mxfile>
